<?xml version="1.0" standalone="no"?>
<!DOCTYPE svg PUBLIC "-//W3C//DTD SVG 20010904//EN"
 "http://www.w3.org/TR/2001/REC-SVG-20010904/DTD/svg10.dtd">
<svg version="1.0" xmlns="http://www.w3.org/2000/svg"
 width="355.000000pt" height="353.000000pt" viewBox="0 0 355.000000 353.000000"
 preserveAspectRatio="xMidYMid meet">

<g transform="translate(0.000000,353.000000) scale(0.100000,-0.100000)"
fill="#000000" stroke="none">
<path d="M1645 3389 c-116 -11 -225 -35 -356 -79 -143 -47 -245 -98 -380 -188
-340 -228 -580 -584 -670 -994 -26 -119 -37 -395 -20 -523 48 -367 212 -690
482 -951 200 -192 420 -316 689 -389 99 -26 289 -55 366 -55 l44 0 0 1431 c0
1389 -1 1431 -18 1408 -10 -13 -81 -109 -157 -214 -76 -104 -167 -228 -201
-275 l-63 -85 115 -3 c88 -2 114 -6 114 -16 0 -8 -19 -40 -43 -72 -118 -161
-447 -623 -447 -628 0 -3 67 -6 149 -6 83 0 152 -3 154 -7 3 -5 -101 -159
-229 -343 -129 -184 -239 -343 -244 -352 -10 -17 9 -18 350 -18 l360 0 0 -315
c0 -277 -2 -315 -15 -315 -35 0 -176 33 -265 62 -481 157 -835 556 -946 1068
-26 119 -27 429 -1 547 125 571 545 994 1107 1114 155 33 413 33 559 1 291
-65 518 -189 721 -392 199 -198 328 -437 387 -710 26 -123 26 -461 -1 -575
-64 -278 -181 -496 -371 -693 -199 -208 -450 -346 -733 -404 l-112 -23 0 -87
c0 -71 3 -88 15 -88 37 0 227 42 309 69 482 157 864 537 1021 1015 128 392
103 808 -71 1175 -290 613 -930 976 -1599 910z"/>
</g>
</svg>
